# xmcd
#
# Track frame offsets:
#	150
#	10661
#	26149
#	56617
#	72342
#	107576
#	123192
#	143588
#	159064
#	175354
#	196382
#	214164
#
# Disc length: 3143 seconds
#
# Revision: 0
# Processed by: cddbd v1.5.2PL0 Copyright (c) Steve Scherf et al.
# Submitted via: audiograbber 1.83.01
#
DISCID=9d0c450c
DTITLE=Soulblues - Soulblues
DYEAR=2018
DGENRE=Blues
TTITLE0=Journey Blues
TTITLE1=I Miss You Darling
TTITLE2=11 October
TTITLE3=Don't Think About To Marry
TTITLE4=Coming Home
TTITLE5=Funkdelia
TTITLE6=Just Put Me Out
TTITLE7=Too Many Problems
TTITLE8=Highway 222
TTITLE9=Bad Lucky
TTITLE10=The Same Theme (For Another Woman)
TTITLE11=Lizzy
EXTD=
EXTT0=
EXTT1=
EXTT2=
EXTT3=
EXTT4=
EXTT5=
EXTT6=
EXTT7=
EXTT8=
EXTT9=
EXTT10=
EXTT11=
PLAYORDER=
